<?xml version="1.0" encoding="UTF-8"?>
<svg xmlns="http://www.w3.org/2000/svg" width="137" height="27" viewBox="0 0 137 27" fill="none">
  <path d="M14.2141 0.857178C17.9794 0.896684 21.259 2.09128 24.0295 4.57829C24.6527 5.14266 24.6527 5.14266 24.0511 5.73149C22.9284 6.80568 21.8037 7.86106 20.7223 8.92961C20.4529 9.20804 20.2858 9.16853 20.038 8.92961C18.935 7.89493 17.6786 7.11797 16.1685 6.83955C13.0225 6.24319 10.2226 6.82073 8.164 9.32656C5.18911 12.9687 6.47895 19.9914 12.9675 20.9903C15.5668 21.3872 17.883 20.7119 19.7883 18.9397C20.3487 18.4224 20.3487 18.4431 20.911 18.9604C22.075 20.0553 23.2705 21.169 24.4502 22.2432C24.6783 22.4426 24.6567 22.5423 24.4502 22.7606C22.5371 24.6098 20.3212 25.9436 17.6294 26.4817C12.8043 27.4561 8.43731 26.5795 4.75654 23.3174C2.58976 21.3891 1.32155 18.9623 0.843755 16.1969C0.344334 13.375 0.635335 10.6265 1.92518 8.01909C3.79702 4.21897 6.97837 1.9991 11.2195 1.1356C12.2064 0.953573 13.209 0.860358 14.2141 0.857178V0.857178Z" fill="white"></path>
  <path d="M14.3226 18.4454C13.7139 18.4438 13.1116 18.3236 12.5499 18.0916C11.9882 17.8596 11.4782 17.5203 11.049 17.0931C10.6197 16.666 10.2797 16.1593 10.0482 15.602C9.81676 15.0448 9.69845 14.4478 9.70003 13.8453C9.70161 13.2428 9.82305 12.6465 10.0574 12.0904C10.2918 11.5343 10.6345 11.0294 11.066 10.6045C11.4974 10.1795 12.0092 9.84289 12.5721 9.61375C13.135 9.38462 13.738 9.26749 14.3466 9.26906H14.3887C15.6179 9.27775 16.7932 9.76947 17.6562 10.6361C18.5191 11.5027 18.999 12.6731 18.9902 13.89C18.9814 15.1068 18.4847 16.2704 17.6094 17.1247C16.734 17.979 15.5517 18.4541 14.3226 18.4454Z" fill="#FE3D2F"></path>
  <path d="M43.291 5.76419L45.1649 9.56695C45.2532 9.74985 45.385 9.90846 45.5489 10.029C45.7129 10.1495 45.9039 10.2282 46.1053 10.2584L50.2974 10.8668C50.5281 10.9007 50.7448 10.9981 50.923 11.148C51.1012 11.298 51.2339 11.4945 51.306 11.7155C51.3782 11.9365 51.3869 12.1731 51.3313 12.3988C51.2758 12.6245 51.158 12.8303 50.9914 12.9929L47.9619 15.9348C47.8191 16.0772 47.713 16.2518 47.6525 16.4438C47.5921 16.6358 47.5792 16.8396 47.6149 17.0376L48.3297 21.1861C48.3698 21.4154 48.3446 21.6513 48.2568 21.8671C48.1691 22.0828 48.0224 22.2697 47.8333 22.4065C47.6443 22.5434 47.4205 22.6246 47.1875 22.6411C46.9544 22.6576 46.7214 22.6086 46.5148 22.4998L42.767 20.5362C42.5876 20.4426 42.3882 20.3937 42.1857 20.3937C41.9832 20.3937 41.7838 20.4426 41.6044 20.5362L37.8566 22.4998C37.6499 22.6072 37.4173 22.6551 37.1848 22.638C36.9523 22.6209 36.7292 22.5395 36.5407 22.403C36.3521 22.2665 36.2055 22.0803 36.1173 21.8653C36.0291 21.6503 36.003 21.4151 36.0417 21.1861L36.7565 17.0376C36.7922 16.8396 36.7793 16.6358 36.7189 16.4438C36.6585 16.2518 36.5523 16.0772 36.4095 15.9348L33.38 12.9929C33.2121 12.8308 33.0932 12.625 33.0368 12.399C32.9805 12.1729 32.9889 11.9357 33.0612 11.7142C33.1336 11.4926 33.2668 11.2958 33.4459 11.146C33.6249 10.9962 33.8426 10.8995 34.0741 10.8668L38.2626 10.2584C38.4566 10.222 38.6392 10.1405 38.7954 10.0203C38.9517 9.90009 39.0771 9.74474 39.1614 9.56695L41.0457 5.76419C41.1494 5.55578 41.3094 5.38035 41.5077 5.25771C41.7061 5.13506 41.9349 5.07007 42.1684 5.07007C42.4018 5.07007 42.6306 5.13506 42.829 5.25771C43.0274 5.38035 43.1874 5.55578 43.291 5.76419Z" fill="#FEC608"></path>
  <path d="M64.6985 5.76468L66.5689 9.56744C66.6585 9.75006 66.7912 9.90835 66.9555 10.0288C67.1199 10.1492 67.3111 10.2281 67.5128 10.2588L71.7014 10.8673C71.9329 10.9 72.1505 10.9967 72.3296 11.1465C72.5086 11.2963 72.6419 11.4931 72.7142 11.7146C72.7865 11.9361 72.795 12.1734 72.7386 12.3995C72.6823 12.6255 72.5634 12.8313 72.3954 12.9934L69.3625 15.9353C69.2194 16.0775 69.1131 16.2521 69.0527 16.4442C68.9922 16.6362 68.9794 16.8401 69.0154 17.0381L69.7303 21.1866C69.769 21.4156 69.7428 21.6508 69.6547 21.8658C69.5665 22.0808 69.4199 22.267 69.2313 22.4035C69.0427 22.54 68.8196 22.6214 68.5872 22.6385C68.3547 22.6556 68.122 22.6077 67.9154 22.5003L64.1675 20.5367C63.9876 20.4431 63.7875 20.3942 63.5845 20.3942C63.3815 20.3942 63.1815 20.4431 63.0015 20.5367L59.2572 22.5003C59.0504 22.6087 58.8173 22.6573 58.5843 22.6407C58.3512 22.624 58.1275 22.5428 57.9383 22.4062C57.7492 22.2695 57.6022 22.0829 57.5139 21.8674C57.4256 21.6519 57.3996 21.4161 57.4388 21.1866L58.1571 17.0381C58.1928 16.8401 58.1799 16.6363 58.1194 16.4443C58.059 16.2523 57.9529 16.0777 57.8101 15.9353L54.7771 12.9934C54.6105 12.8307 54.4927 12.625 54.4372 12.3993C54.3816 12.1736 54.3904 11.937 54.4625 11.716C54.5346 11.495 54.6673 11.2985 54.8455 11.1485C55.0237 10.9986 55.2404 10.9012 55.4711 10.8673L59.6597 10.2588C59.8616 10.2287 60.053 10.15 60.2175 10.0295C60.382 9.909 60.5145 9.75042 60.6036 9.56744L62.4532 5.76468C62.5568 5.55627 62.7169 5.38084 62.9152 5.25819C63.1136 5.13555 63.3424 5.07056 63.5759 5.07056C63.8093 5.07056 64.0381 5.13555 64.2365 5.25819C64.4348 5.38084 64.5949 5.55627 64.6985 5.76468Z" fill="#FEC608"></path>
  <path d="M86.107 5.75777L87.9809 9.56053C88.07 9.7435 88.2025 9.90209 88.367 10.0226C88.5315 10.143 88.7229 10.2218 88.9248 10.2519L93.1134 10.8604C93.3442 10.8943 93.5608 10.9917 93.739 11.1416C93.9173 11.2916 94.0499 11.4881 94.122 11.7091C94.1942 11.9301 94.203 12.1667 94.1474 12.3924C94.0918 12.6181 93.9741 12.8238 93.8074 12.9865L90.7745 15.9284C90.6316 16.0707 90.5255 16.2454 90.4651 16.4374C90.4047 16.6294 90.3917 16.8331 90.4274 17.0312L91.1458 21.1797C91.185 21.4091 91.1589 21.645 91.0706 21.8605C90.9824 22.076 90.8354 22.2626 90.6462 22.3992C90.4571 22.5359 90.2333 22.6171 90.0003 22.6337C89.7672 22.6504 89.5341 22.6018 89.3274 22.4934L85.583 20.5298C85.403 20.4361 85.203 20.3873 85 20.3873C84.797 20.3873 84.597 20.4361 84.417 20.5298L80.6692 22.4934C80.4625 22.6008 80.2298 22.6487 79.9974 22.6316C79.7649 22.6145 79.5418 22.5331 79.3532 22.3966C79.1646 22.2601 79.018 22.0739 78.9299 21.8589C78.8417 21.6439 78.8155 21.4087 78.8542 21.1797L79.5691 17.0312C79.6051 16.8331 79.5923 16.6293 79.5319 16.4373C79.4714 16.2452 79.3651 16.0706 79.2221 15.9284L76.1891 12.9865C76.0212 12.8244 75.9023 12.6186 75.8459 12.3926C75.7896 12.1665 75.798 11.9292 75.8703 11.7077C75.9426 11.4862 76.0759 11.2894 76.2549 11.1396C76.434 10.9898 76.6516 10.893 76.8831 10.8604L81.0717 10.2519C81.2734 10.2212 81.4646 10.1423 81.629 10.0218C81.7934 9.90144 81.926 9.74315 82.0156 9.56053L83.8756 5.75777C83.9806 5.55297 84.1404 5.38105 84.3373 5.26099C84.5341 5.14093 84.7605 5.07739 84.9913 5.07739C85.2222 5.07739 85.4485 5.14093 85.6454 5.26099C85.8423 5.38105 86.002 5.55297 86.107 5.75777Z" fill="#FEC608"></path>
  <path d="M107.508 5.75988L109.392 9.56264C109.482 9.74561 109.614 9.9042 109.778 10.0247C109.943 10.1452 110.134 10.2239 110.336 10.254L114.525 10.8625C114.756 10.8952 114.974 10.9919 115.153 11.1417C115.332 11.2915 115.465 11.4883 115.538 11.7098C115.61 11.9313 115.618 12.1686 115.562 12.3947C115.506 12.6207 115.387 12.8265 115.219 12.9886L112.186 15.9305C112.042 16.0722 111.935 16.2467 111.875 16.439C111.814 16.6312 111.802 16.8353 111.839 17.0333L112.554 21.1818C112.593 21.4113 112.567 21.6471 112.479 21.8626C112.39 22.0781 112.243 22.2647 112.054 22.4014C111.865 22.538 111.641 22.6192 111.408 22.6359C111.175 22.6525 110.942 22.6039 110.735 22.4955L106.991 20.5319C106.811 20.4383 106.611 20.3894 106.408 20.3894C106.205 20.3894 106.005 20.4383 105.825 20.5319L102.077 22.4955C101.871 22.6029 101.638 22.6508 101.405 22.6337C101.173 22.6166 100.95 22.5352 100.761 22.3987C100.573 22.2622 100.426 22.076 100.338 21.861C100.25 21.646 100.224 21.4108 100.262 21.1818L100.977 17.0333C101.013 16.8353 101 16.6314 100.94 16.4394C100.879 16.2473 100.773 16.0727 100.63 15.9305L97.5971 12.9886C97.4292 12.8265 97.3103 12.6207 97.2539 12.3947C97.1976 12.1686 97.206 11.9313 97.2783 11.7098C97.3507 11.4883 97.4839 11.2915 97.6629 11.1417C97.842 10.9919 98.0597 10.8952 98.2912 10.8625L102.48 10.254C102.682 10.2239 102.873 10.1452 103.038 10.0247C103.202 9.9042 103.335 9.74561 103.424 9.56264L105.277 5.75988C105.381 5.55405 105.54 5.38106 105.737 5.26019C105.934 5.13932 106.161 5.07532 106.392 5.07532C106.624 5.07532 106.851 5.13932 107.048 5.26019C107.245 5.38106 107.404 5.55405 107.508 5.75988Z" fill="#FEC608"></path>
  <path d="M128.923 5.76419L130.797 9.56695C130.885 9.74985 131.017 9.90846 131.181 10.029C131.345 10.1495 131.536 10.2282 131.737 10.2584L135.926 10.8668C136.157 10.8995 136.375 10.9962 136.554 11.146C136.733 11.2958 136.866 11.4926 136.939 11.7142C137.011 11.9357 137.019 12.1729 136.963 12.399C136.907 12.625 136.788 12.8308 136.62 12.9929L133.59 15.9348C133.447 16.0772 133.341 16.2518 133.281 16.4438C133.22 16.6358 133.208 16.8396 133.243 17.0376L133.958 21.1861C133.997 21.4151 133.971 21.6503 133.882 21.8653C133.794 22.0803 133.648 22.2665 133.459 22.403C133.271 22.5395 133.047 22.6209 132.815 22.638C132.582 22.6551 132.35 22.6072 132.143 22.4998L128.395 20.5362C128.216 20.4426 128.017 20.3937 127.814 20.3937C127.612 20.3937 127.412 20.4426 127.233 20.5362L123.485 22.4998C123.278 22.6086 123.045 22.6576 122.812 22.6411C122.579 22.6246 122.355 22.5434 122.166 22.4065C121.977 22.2697 121.831 22.0828 121.743 21.8671C121.655 21.6513 121.63 21.4154 121.67 21.1861L122.385 17.0376C122.421 16.8396 122.408 16.6358 122.347 16.4438C122.287 16.2518 122.181 16.0772 122.038 15.9348L119.008 12.9929C118.842 12.8303 118.724 12.6245 118.668 12.3988C118.613 12.1731 118.622 11.9365 118.694 11.7155C118.766 11.4945 118.899 11.298 119.077 11.148C119.255 10.9981 119.472 10.9007 119.702 10.8668L123.894 10.2584C124.096 10.2282 124.287 10.1495 124.451 10.029C124.615 9.90846 124.747 9.74985 124.835 9.56695L126.678 5.76419C126.781 5.55578 126.941 5.38035 127.14 5.25771C127.338 5.13506 127.567 5.07007 127.8 5.07007C128.034 5.07007 128.262 5.13506 128.461 5.25771C128.659 5.38035 128.819 5.55578 128.923 5.76419Z" fill="#FEC608"></path>
</svg>
